<?xml version="1.0" encoding="UTF-8" standalone="no" ?>
<!DOCTYPE svg PUBLIC "-//W3C//DTD SVG 1.1//EN" "http://www.w3.org/Graphics/SVG/1.1/DTD/svg11.dtd">
<svg xmlns="http://www.w3.org/2000/svg" xmlns:xlink="http://www.w3.org/1999/xlink" version="1.1" width="350" height="350" viewBox="0 0 350 350" xml:space="preserve">
<desc>Created with Fabric.js 1.7.22</desc>
<defs>
</defs>
<g id="icon" style="stroke: none; stroke-width: 1; stroke-dasharray: none; stroke-linecap: butt; stroke-linejoin: miter; stroke-miterlimit: 10; fill: none; fill-rule: nonzero; opacity: 1;" transform="translate(-1.9444444444444287 -1.9444444444444287) scale(3.89 3.89)" >
	<path d="M 85.736 22.599 c -2.086 -2.268 -5.33 -3.128 -8.265 -2.19 c -2.032 0.649 -3.693 2.023 -4.678 3.869 c -0.65 1.219 -1.453 2.119 -2.386 2.673 l -0.846 0.503 c -2.194 1.305 -5.16 1.191 -7.208 -0.281 l -0.005 0.007 c -1.671 -1.189 -3.48 -2.166 -5.394 -2.896 c -0.833 -0.583 -1.325 -1.484 -1.325 -2.445 v -0.322 c 0 -0.777 0.348 -1.575 0.979 -2.247 c 2.308 -2.454 3.41 -5.792 3.027 -9.158 c -0.597 -5.237 -4.832 -9.46 -10.072 -10.041 c -3.253 -0.361 -6.507 0.676 -8.928 2.844 c -2.422 2.169 -3.812 5.277 -3.812 8.527 c 0 2.92 1.103 5.701 3.104 7.828 c 0.63 0.67 0.978 1.468 0.978 2.246 v 0.275 c 0 0.978 -0.468 1.901 -1.235 2.46 c -0.937 0.353 -1.845 0.77 -2.728 1.234 l -0.004 -0.008 c -2.286 1.237 -5.249 1.031 -7.203 -0.502 l -0.773 -0.606 c -0.855 -0.67 -1.537 -1.665 -2.026 -2.958 c -0.741 -1.956 -2.213 -3.53 -4.145 -4.434 c -2.793 -1.305 -6.121 -0.866 -8.479 1.118 c -1.89 1.59 -2.95 3.898 -2.908 6.332 c 0.042 2.434 1.165 4.691 3.08 6.191 c 1.142 0.895 2.506 1.46 3.944 1.636 c 1.383 0.169 2.545 0.616 3.454 1.329 l 0.612 0.48 c 1.92 1.504 2.873 4.449 2.215 6.851 l 0.009 0.003 c -0.232 0.906 -0.424 1.825 -0.552 2.76 c -0.406 0.88 -1.156 1.51 -2.047 1.706 l -0.314 0.069 c -0.759 0.166 -1.613 -0.001 -2.404 -0.472 c -2.893 -1.726 -6.39 -2.085 -9.594 -0.987 c -4.986 1.709 -8.2 6.753 -7.64 11.994 c 0.348 3.254 2.061 6.209 4.698 8.108 c 2.639 1.898 5.972 2.586 9.147 1.889 c 2.851 -0.627 5.329 -2.302 6.978 -4.715 c 0.519 -0.76 1.223 -1.271 1.986 -1.439 l 0.265 -0.059 c 0.943 -0.208 1.939 0.046 2.649 0.664 c 1.136 1.735 2.469 3.289 3.951 4.654 c 1.791 1.661 2.467 4.501 1.64 6.93 l -0.317 0.931 c -0.35 1.027 -1.064 1.999 -2.122 2.887 c -1.603 1.345 -2.604 3.254 -2.819 5.376 c -0.311 3.066 1.202 6.064 3.853 7.635 C 33.363 89.612 34.799 90 36.239 90 c 0.936 0 1.873 -0.165 2.773 -0.497 c 2.284 -0.843 4.044 -2.648 4.828 -4.95 c 0.468 -1.373 0.552 -2.848 0.243 -4.263 c -0.297 -1.361 -0.258 -2.606 0.115 -3.7 l 0.25 -0.733 c 0.847 -2.485 2.997 -4.265 5.351 -4.428 l 0 -0.001 c 2.279 -0.133 4.514 -0.572 6.641 -1.306 c 0.658 -0.227 1.326 -0.498 2.079 -0.844 c 0.9 -0.1 1.806 0.223 2.461 0.877 l 0.194 0.194 c 0.549 0.55 0.867 1.359 0.896 2.279 c 0.09 2.92 1.276 5.665 3.341 7.73 c 2.149 2.149 5.07 3.352 8.096 3.352 c 0.21 0 0.42 -0.006 0.63 -0.017 c 3.244 -0.18 6.279 -1.747 8.324 -4.302 c 3.293 -4.115 3.302 -10.096 0.021 -14.222 h -0.001 c -2.109 -2.65 -5.249 -4.231 -8.615 -4.335 c -0.921 -0.028 -1.732 -0.347 -2.277 -0.892 l -0.231 -0.233 c -0.642 -0.641 -0.931 -1.537 -0.811 -2.49 c 1.819 -3.977 2.539 -8.321 2.083 -12.588 c -0.022 -0.206 -0.055 -0.409 -0.082 -0.614 l 0.008 -0.001 c -0.355 -2.539 0.947 -5.387 3.028 -6.625 l 0.666 -0.397 c 0.98 -0.583 2.168 -0.878 3.535 -0.878 c 0.037 0 0.074 0.001 0.11 0 c 1.434 0 2.841 -0.387 4.072 -1.12 c 2.091 -1.244 3.492 -3.339 3.845 -5.747 C 88.164 26.842 87.407 24.417 85.736 22.599 z M 25.579 30.128 l -0.611 -0.479 c -1.637 -1.282 -3.632 -2.075 -5.932 -2.357 c -0.542 -0.066 -1.036 -0.271 -1.467 -0.609 c -0.724 -0.567 -1.148 -1.421 -1.164 -2.342 c -0.016 -0.935 0.384 -1.794 1.127 -2.419 c 0.86 -0.723 2.125 -0.889 3.143 -0.414 c 0.956 0.447 1.39 1.158 1.585 1.674 c 0.817 2.158 2.034 3.881 3.618 5.123 l 0.773 0.606 c 1.056 0.828 2.254 1.438 3.521 1.834 c -0.333 0.368 -0.659 0.744 -0.971 1.133 c -0.338 0.422 -0.66 0.855 -0.968 1.298 C 27.539 32.009 26.648 30.965 25.579 30.128 z M 39.465 74.977 c -0.671 1.969 -0.761 4.114 -0.267 6.377 c 0.116 0.534 0.086 1.067 -0.091 1.587 c -0.296 0.87 -0.962 1.553 -1.827 1.871 c -0.875 0.325 -1.818 0.229 -2.654 -0.266 c -0.967 -0.573 -1.541 -1.711 -1.428 -2.83 c 0.106 -1.05 0.633 -1.693 1.059 -2.05 c 1.767 -1.483 2.992 -3.201 3.64 -5.105 l 0.317 -0.931 c 0.448 -1.316 0.644 -2.687 0.613 -4.042 c 0.942 0.396 1.911 0.733 2.903 1.008 c -0.864 1.067 -1.556 2.297 -2.016 3.646 L 39.465 74.977 z M 73.71 65.833 c 1.923 0.06 3.649 0.93 4.859 2.45 c 1.842 2.316 1.837 5.674 -0.012 7.984 c -1.175 1.467 -2.843 2.332 -4.696 2.434 c -1.833 0.112 -3.62 -0.583 -4.915 -1.877 c -1.16 -1.161 -1.828 -2.705 -1.878 -4.349 c -0.068 -2.197 -0.905 -4.208 -2.358 -5.66 l -0.194 -0.194 c -1.526 -1.526 -3.57 -2.359 -5.677 -2.359 c -0.511 0 -1.025 0.049 -1.536 0.149 l -0.308 0.06 l -0.282 0.134 c -0.722 0.342 -1.326 0.594 -1.902 0.792 c -1.703 0.588 -3.495 0.939 -5.332 1.044 c -0.234 0.014 -0.471 0.021 -0.69 0.025 l -0.281 0.009 c -0.089 0.003 -0.184 0.008 -0.275 0.007 c -0.725 -0.002 -1.458 -0.043 -2.179 -0.123 c -5.698 -0.631 -10.975 -3.946 -14.115 -8.871 l -0.142 -0.223 l -0.186 -0.188 c -1.911 -1.939 -4.762 -2.78 -7.447 -2.185 l -0.265 0.059 c -2.007 0.442 -3.796 1.686 -5.035 3.5 c -0.928 1.357 -2.321 2.3 -3.924 2.652 c -1.787 0.393 -3.665 0.005 -5.151 -1.065 c -1.507 -1.084 -2.447 -2.711 -2.647 -4.58 c -0.314 -2.942 1.49 -5.774 4.289 -6.733 c 1.838 -0.632 3.76 -0.436 5.413 0.551 c 1.89 1.126 4.035 1.504 6.041 1.061 l 0.313 -0.069 c 2.63 -0.577 4.78 -2.473 5.753 -5.068 l 0.105 -0.302 l 0.064 -0.508 c 0.473 -3.472 1.852 -6.717 3.988 -9.384 c 2.257 -2.818 5.216 -4.948 8.558 -6.159 l 0.245 -0.088 l 0.221 -0.137 c 2.33 -1.444 3.778 -4.061 3.778 -6.828 v -0.275 c 0 -2.055 -0.829 -4.069 -2.336 -5.671 c -1.126 -1.197 -1.746 -2.761 -1.746 -4.403 c 0 -1.83 0.783 -3.58 2.148 -4.802 c 1.383 -1.239 3.169 -1.807 5.042 -1.599 c 2.941 0.326 5.319 2.696 5.653 5.637 c 0.221 1.931 -0.384 3.766 -1.701 5.167 c -1.507 1.602 -2.336 3.616 -2.336 5.672 v 0.322 c 0 2.779 1.452 5.33 3.886 6.821 l 0.443 0.215 c 1.671 0.615 3.248 1.46 4.709 2.526 c 4.551 3.254 7.389 8.142 7.989 13.762 c 0.371 3.465 -0.244 7.005 -1.778 10.235 l -0.133 0.278 l -0.061 0.302 c -0.537 2.678 0.261 5.395 2.132 7.264 l 0.232 0.233 C 69.503 64.927 71.513 65.764 73.71 65.833 z M 82.864 28.526 c -0.134 0.912 -0.663 1.704 -1.454 2.174 c -0.465 0.276 -0.975 0.417 -1.514 0.417 c -0.037 0 -0.077 0 -0.115 0 c -2.276 0 -4.324 0.532 -6.088 1.581 l -0.667 0.397 c -1.175 0.699 -2.205 1.655 -3.048 2.776 c -0.489 -0.938 -1.041 -1.84 -1.647 -2.706 c 1.321 -0.244 2.607 -0.711 3.786 -1.412 l 0.846 -0.502 c 1.729 -1.028 3.156 -2.583 4.242 -4.619 c 0.261 -0.488 0.781 -1.138 1.786 -1.459 c 1.071 -0.343 2.303 -0.017 3.064 0.811 C 82.712 26.698 83 27.601 82.864 28.526 z" style="stroke: none; stroke-width: 1; stroke-dasharray: none; stroke-linecap: butt; stroke-linejoin: miter; stroke-miterlimit: 10; fill:rgba(16, 67, 212, .8) ; fill-rule: nonzero; opacity: 1;" transform=" matrix(1 0 0 1 0 0) " stroke-linecap="round" />
	<path d="M 81.208 54.686 c -3.033 0 -5.5 -2.468 -5.5 -5.5 s 2.468 -5.5 5.5 -5.5 c 3.033 0 5.5 2.467 5.5 5.5 S 84.241 54.686 81.208 54.686 z" style="stroke: none; stroke-width: 1; stroke-dasharray: none; stroke-linecap: butt; stroke-linejoin: miter; stroke-miterlimit: 10; fill: rgb(0,0,0); fill-rule: nonzero; opacity: 1;" transform=" matrix(1 0 0 1 0 0) " stroke-linecap="round" />
	<path d="M 23.814 74.977 c -2.206 0 -4 -1.794 -4 -4 c 0 -2.205 1.794 -4 4 -4 s 4 1.794 4 4 C 27.814 73.183 26.02 74.977 23.814 74.977 z" style="stroke: none; stroke-width: 1; stroke-dasharray: none; stroke-linecap: butt; stroke-linejoin: miter; stroke-miterlimit: 10; fill: rgb(0,0,0); fill-rule: nonzero; opacity: 1;" transform=" matrix(1 0 0 1 0 0) " stroke-linecap="round" />
	<path d="M 53.104 34.313 h -3.205 c -5.828 0 -10.553 4.392 -10.553 9.809 v 5.638 c 0 5.417 4.725 9.809 10.553 9.809 h 3.205 c 1.043 0 1.889 -0.786 1.889 -1.756 V 56.32 c 0 -0.97 -0.846 -1.756 -1.889 -1.756 h -2.066 c -3.519 0 -6.371 -2.651 -6.371 -5.922 v -3.404 c 0 -3.271 2.852 -5.922 6.371 -5.922 h 2.066 c 1.043 0 1.889 -0.786 1.889 -1.756 v -1.493 C 54.993 35.099 54.147 34.313 53.104 34.313 z" style="stroke: none; stroke-width: 1; stroke-dasharray: none; stroke-linecap: butt; stroke-linejoin: miter; stroke-miterlimit: 10; fill: rgb(0,0,0); fill-rule: nonzero; opacity: 1;" transform=" matrix(1 0 0 1 0 0) " stroke-linecap="round" />
</g>
</svg>